<svg xmlns="http://www.w3.org/2000/svg" viewBox="0 0 400 430" width="100%" height="100%" version="1.1">
  <defs>
    <style>
      @keyframes float {
        0%, 100% { transform: translateY(0px); }
        50% { transform: translateY(-15px); }
      }
      @keyframes shadow-pulse {
        0%, 100% { transform: scale(1); opacity: 0.2; }
        50% { transform: scale(0.82); opacity: 0.1; }
      }
      @keyframes blink {
        0%, 92%, 100% { transform: scaleY(1); }
        96% { transform: scaleY(0.1); }
      }
      @keyframes minimal-mouth {
        0%, 100% { transform: scale(1, 1); }
        50% { transform: scale(1.04, 0.96); }
      }
      .ghost-body {
        animation: float 3.2s ease-in-out infinite;
      }
      .ghost-ground-shadow {
        animation: shadow-pulse 3.2s ease-in-out infinite;
        transform-origin: 200px 385px;
      }
      .ghost-eyes {
        animation: blink 4.2s infinite;
        transform-origin: 200px 180px;
      }
      .ghost-mouth {
        animation: minimal-mouth 3.2s ease-in-out infinite;
        transform-origin: 200px 220px;
      }
    </style>
    <filter id="ghost-shadow" x="-20%" y="-20%" width="140%" height="140%">
      <feDropShadow dx="0" dy="8" stdDeviation="6" flood-color="#06B6D4" flood-opacity="0.3"/>
    </filter>
    <linearGradient id="ghost-body-grad" x1="0%" y1="0%" x2="100%" y2="100%">
      <stop offset="0%" stop-color="#E0F7FA"/>
      <stop offset="60%" stop-color="#67E8F9"/>
      <stop offset="100%" stop-color="#06B6D4"/>
    </linearGradient>
  </defs>
  <ellipse class="ghost-ground-shadow" cx="200" cy="385" rx="75" ry="10" fill="#083344" opacity="0.2"/>
  <g class="ghost-body" filter="url(#ghost-shadow)">
    <path d="M 80 170 C 80 103.7, 133.7 50, 200 50 C 266.3 50, 320 103.7, 320 170 L 320 330 Q 290 352, 260 330 Q 230 352, 200 330 Q 170 352, 140 330 Q 110 352, 80 330 Z" fill="url(#ghost-body-grad)"/>
    <path d="M 285 105 C 305 140, 320 220, 320 330 Q 290 352, 260 330 Q 250 322, 245 310 C 270 270, 280 180, 285 105 Z" fill="#0891B2" opacity="0.4"/>
    <g class="ghost-eyes">
      <ellipse cx="165" cy="180" rx="13" ry="18" fill="#083344"/>
      <ellipse cx="168" cy="175" rx="5" ry="7" fill="#FFFFFF"/>
      <ellipse cx="235" cy="180" rx="13" ry="18" fill="#083344"/>
      <ellipse cx="238" cy="175" rx="5" ry="7" fill="#FFFFFF"/>
    </g>
    <ellipse cx="148" cy="197" rx="9" ry="5" fill="#0891B2" opacity="0.6"/>
    <ellipse cx="252" cy="197" rx="9" ry="5" fill="#0891B2" opacity="0.6"/>
    <path class="ghost-mouth" d="M 186 213 Q 200 237 214 213 Q 200 207 186 213 Z" fill="#083344"/>
  </g>
</svg>
